<svg width="24" height="9" viewBox="0 0 24 9" fill="none" xmlns="http://www.w3.org/2000/svg">
<path d="M9.82982 0C10.6468 0.005 11.2668 0.237999 11.6718 0.691999C12.0548 1.123 12.2388 1.746 12.2188 2.542L12.2048 2.603C12.1968 2.621 12.1848 2.639 12.1698 2.653C12.1398 2.682 12.0988 2.698 12.0568 2.698H10.3978C10.2898 2.698 10.1988 2.61 10.1988 2.503C10.1988 2.079 10.0708 1.845 9.80882 1.793L9.68882 1.782C9.34682 1.782 9.12482 1.993 9.11882 2.361C9.11182 2.771 9.34382 3.144 10.0038 3.784C10.8718 4.6 11.2208 5.323 11.2038 6.277C11.1768 7.821 10.1268 8.82 8.53082 8.82C7.71582 8.82 7.09282 8.601 6.67782 8.171C6.25782 7.734 6.06582 7.093 6.10582 6.265C6.10782 6.223 6.12482 6.182 6.15482 6.153C6.18482 6.124 6.22582 6.108 6.26682 6.108H7.98282C8.00682 6.109 8.02982 6.115 8.05182 6.125C8.07282 6.136 8.09182 6.151 8.10682 6.17C8.11982 6.185 8.12882 6.203 8.13482 6.223C8.13982 6.242 8.14082 6.263 8.13682 6.283C8.11782 6.581 8.17082 6.804 8.28782 6.928C8.36282 7.008 8.46882 7.049 8.59882 7.049C8.91582 7.049 9.10182 6.824 9.10882 6.434C9.11482 6.097 9.00682 5.8 8.42682 5.202C7.67582 4.468 7.00282 3.71 7.02382 2.518C7.03682 1.826 7.31082 1.194 7.79782 0.737C8.31182 0.255 9.01382 0 9.82982 0ZM4.04682 0.0279999C4.79382 0.0219999 5.38082 0.252 5.78882 0.713C6.22082 1.2 6.43982 1.934 6.44082 2.895C6.43982 2.937 6.42182 2.977 6.39182 3.007C6.36182 3.036 6.32182 3.053 6.27982 3.053H4.47882C4.44782 3.052 4.41682 3.039 4.39482 3.017C4.37282 2.994 4.36082 2.963 4.35982 2.932C4.34582 2.309 4.17182 1.986 3.82782 1.948L3.75682 1.944C3.06682 1.945 2.65982 2.882 2.44382 3.402C2.14182 4.129 1.98782 4.917 2.01782 5.703C2.03282 6.069 2.09182 6.583 2.43782 6.796C2.74582 6.985 3.18482 6.86 3.45082 6.65C3.71582 6.441 3.92982 6.079 4.01982 5.749C4.03282 5.703 4.03282 5.668 4.02082 5.651C4.01482 5.643 4.00282 5.639 3.98882 5.636L3.48482 5.632C3.46082 5.632 3.43582 5.626 3.41382 5.616C3.39182 5.606 3.37182 5.591 3.35582 5.572C3.34382 5.558 3.33482 5.54 3.33082 5.522C3.32682 5.503 3.32682 5.484 3.33082 5.466L3.64682 4.092C3.66282 4.021 3.72582 3.968 3.80382 3.958V3.955H6.83882C6.84582 3.955 6.85382 3.955 6.85982 3.956C6.93882 3.966 6.99482 4.04 6.99382 4.12V4.124L6.67782 5.495C6.66082 5.573 6.58282 5.63 6.49382 5.63H6.11282C6.09982 5.63 6.08582 5.635 6.07482 5.643C6.06382 5.651 6.05582 5.663 6.05182 5.676C5.69982 6.87 5.22282 7.692 4.59382 8.185C4.05782 8.605 3.39882 8.801 2.51682 8.801C1.72482 8.801 1.19082 8.546 0.737822 8.043C0.139822 7.377 -0.107178 6.289 0.0428217 4.976C0.312822 2.513 1.58882 0.0279999 4.04682 0.0279999ZM21.0158 0.16C23.0258 0.16 24.0298 1.072 23.9988 2.871C23.9618 4.979 22.6778 6.529 20.7448 6.887C20.4698 6.937 20.1908 6.957 19.9118 6.955L18.9778 6.951C18.9628 6.951 18.9478 6.957 18.9368 6.968C18.9258 6.978 18.9198 6.993 18.9198 7.008C18.9198 7.018 18.9218 7.028 18.9278 7.037C18.9328 7.046 18.9408 7.053 18.9498 7.058L19.7438 7.472C19.8088 7.506 19.8348 7.563 19.8198 7.636C19.8148 7.659 19.6178 8.549 19.6128 8.569C19.5958 8.647 19.5328 8.692 19.4418 8.692H17.7388C17.7148 8.692 17.6898 8.687 17.6678 8.677C17.6458 8.667 17.6258 8.651 17.6098 8.633C17.5978 8.618 17.5888 8.601 17.5848 8.583C17.5798 8.565 17.5808 8.545 17.5848 8.526L19.4808 0.285C19.4998 0.199 19.5808 0.161 19.6528 0.161L21.0158 0.16ZM17.2728 0.172C17.2918 0.18 17.3098 0.191 17.3238 0.205C17.3378 0.22 17.3508 0.238 17.3578 0.257C17.3658 0.276 17.3688 0.296 17.3688 0.316L17.3578 8.529C17.3608 8.548 17.3598 8.568 17.3548 8.587C17.3498 8.606 17.3398 8.623 17.3278 8.638C17.3128 8.655 17.2948 8.669 17.2738 8.678C17.2538 8.687 17.2318 8.692 17.2098 8.691H15.3968C15.3768 8.692 15.3558 8.687 15.3368 8.68C15.3178 8.672 15.2998 8.66 15.2858 8.646C15.2718 8.631 15.2598 8.614 15.2528 8.595C15.2448 8.576 15.2408 8.556 15.2408 8.535L15.2798 7.738C15.2818 7.651 15.2798 7.627 15.2288 7.621L15.1608 7.619H13.4468C13.3228 7.619 13.3138 7.63 13.2698 7.744L12.9138 8.601C12.8818 8.662 12.8178 8.691 12.7218 8.691H10.9268C10.8178 8.691 10.7398 8.583 10.7808 8.482L14.4988 0.283C14.5238 0.234 14.5618 0.16 14.6478 0.16H17.2138C17.2338 0.16 17.2538 0.164 17.2728 0.172ZM15.4998 2.395C15.4918 2.363 15.4658 2.366 15.4448 2.408C15.4298 2.438 15.4158 2.47 15.4048 2.501L14.1208 5.684C14.1138 5.704 14.1088 5.72 14.1048 5.732C14.1038 5.738 14.1028 5.745 14.1038 5.751C14.1048 5.757 14.1078 5.763 14.1108 5.768C14.1148 5.773 14.1198 5.777 14.1258 5.78C14.1308 5.783 14.1368 5.786 14.1428 5.786L15.2148 5.8C15.3338 5.79 15.3398 5.784 15.3518 5.663C15.3538 5.62 15.5058 2.432 15.4998 2.395ZM20.1118 1.992C20.0968 1.992 20.0828 1.998 20.0718 2.009C20.0608 2.019 20.0548 2.034 20.0538 2.049C20.0538 2.059 20.0568 2.069 20.0618 2.078C20.0678 2.087 20.0748 2.095 20.0838 2.1C20.0968 2.107 20.8688 2.514 20.9258 2.545C20.9678 2.568 20.9688 2.608 20.9548 2.677C20.9478 2.708 20.4148 5.052 20.4158 5.054C20.4188 5.057 20.4348 5.065 20.5148 5.065H20.5508C21.4458 5.029 21.9338 3.971 21.9518 2.944C21.9608 2.389 21.7718 2.048 21.4288 1.998L21.3578 1.992H20.1118Z" fill="#0AE448"/>
</svg>
