<svg width="394" height="207" viewBox="0 0 394 207" fill="none" xmlns="http://www.w3.org/2000/svg">
<path d="M11.624 90V0.399994H28.776L81.64 64.912H73.32V0.399994H93.8V90H76.776L23.784 25.488H32.104V90H11.624ZM104.119 90V76.56L159.543 9.744L162.103 17.296H105.143V0.399994H180.535V13.84L125.239 80.656L122.679 73.104H182.455V90H104.119ZM178.858 90L218.794 0.399994H239.274L279.338 90H257.578L224.81 10.896H233.002L200.106 90H178.858ZM198.826 70.8L204.33 55.056H250.41L256.042 70.8H198.826ZM283.514 90V0.399994H322.298C330.319 0.399994 337.231 1.72266 343.034 4.368C348.837 6.92799 353.317 10.64 356.474 15.504C359.631 20.368 361.21 26.1707 361.21 32.912C361.21 39.568 359.631 45.328 356.474 50.192C353.317 54.9707 348.837 58.64 343.034 61.2C337.231 63.76 330.319 65.04 322.298 65.04H295.034L304.25 55.952V90H283.514ZM340.474 90L318.074 57.488H340.218L362.874 90H340.474ZM304.25 58.256L295.034 48.528H321.146C327.546 48.528 332.325 47.1627 335.482 44.432C338.639 41.616 340.218 37.776 340.218 32.912C340.218 27.9627 338.639 24.1227 335.482 21.392C332.325 18.6613 327.546 17.296 321.146 17.296H295.034L304.25 7.43999V58.256ZM378.663 91.024C375.25 91.024 372.306 89.872 369.831 87.568C367.442 85.1787 366.247 82.1493 366.247 78.48C366.247 74.8107 367.442 71.8667 369.831 69.648C372.306 67.344 375.25 66.192 378.663 66.192C382.162 66.192 385.106 67.344 387.495 69.648C389.884 71.8667 391.079 74.8107 391.079 78.48C391.079 82.1493 389.884 85.1787 387.495 87.568C385.106 89.872 382.162 91.024 378.663 91.024Z" fill="black"/>
<path d="M11.624 207V117.4H52.328C62.056 117.4 70.632 119.277 78.056 123.032C85.48 126.701 91.2827 131.864 95.464 138.52C99.6453 145.176 101.736 153.069 101.736 162.2C101.736 171.245 99.6453 179.139 95.464 185.88C91.2827 192.536 85.48 197.741 78.056 201.496C70.632 205.165 62.056 207 52.328 207H11.624ZM32.36 189.976H51.304C57.2773 189.976 62.44 188.867 66.792 186.648C71.2293 184.344 74.6427 181.101 77.032 176.92C79.5067 172.739 80.744 167.832 80.744 162.2C80.744 156.483 79.5067 151.576 77.032 147.48C74.6427 143.299 71.2293 140.099 66.792 137.88C62.44 135.576 57.2773 134.424 51.304 134.424H32.36V189.976ZM131.326 153.496H174.462V169.624H131.326V153.496ZM132.862 190.36H181.63V207H112.254V117.4H179.966V134.04H132.862V190.36ZM218.639 207L179.983 117.4H202.383L236.175 196.76H222.991L257.295 117.4H277.903L239.119 207H218.639Z" fill="#0000FF"/>
</svg>
